<?xml version="1.0" encoding="UTF-8" standalone="no"?>
<svg
   xmlns:dc="http://purl.org/dc/elements/1.1/"
   xmlns:cc="http://creativecommons.org/ns#"
   xmlns:rdf="http://www.w3.org/1999/02/22-rdf-syntax-ns#"
   xmlns:svg="http://www.w3.org/2000/svg"
   xmlns="http://www.w3.org/2000/svg"
   xmlns:sodipodi="http://sodipodi.sourceforge.net/DTD/sodipodi-0.dtd"
   xmlns:inkscape="http://www.inkscape.org/namespaces/inkscape"
   width="210mm"
   height="297mm"
   viewBox="0 0 210 297"
   version="1.1"
   id="svg915"
   inkscape:version="1.0.1 (3bc2e813f5, 2020-09-07)"
   sodipodi:docname="Cobold.svg">
  <defs
     id="defs909" />
  <sodipodi:namedview
     id="base"
     pagecolor="#ffffff"
     bordercolor="#666666"
     borderopacity="1.0"
     inkscape:pageopacity="0.0"
     inkscape:pageshadow="2"
     inkscape:zoom="1.4"
     inkscape:cx="233.67969"
     inkscape:cy="499.81381"
     inkscape:document-units="mm"
     inkscape:current-layer="g1501"
     inkscape:document-rotation="0"
     showgrid="false"
     showguides="false"
     inkscape:window-width="1436"
     inkscape:window-height="1208"
     inkscape:window-x="289"
     inkscape:window-y="187"
     inkscape:window-maximized="0" />
  <metadata
     id="metadata912">
    <rdf:RDF>
      <cc:Work
         rdf:about="">
        <dc:format>image/svg+xml</dc:format>
        <dc:type
           rdf:resource="http://purl.org/dc/dcmitype/StillImage" />
        <dc:title></dc:title>
      </cc:Work>
    </rdf:RDF>
  </metadata>
  <g
     inkscape:label="Ebene 1"
     inkscape:groupmode="layer"
     id="layer1">
    <g
       id="g1501"
       transform="translate(0,2.6726951)">
      <path
         style="fill:#ef5a58;stroke-width:0.264583"
         d="m 66.859264,108.22585 c -0.582084,-0.2097 -1.244231,-0.57206 -1.269325,-0.57425 -0.0251,-0.002 -0.330553,-0.29609 -0.505556,-0.82636 -0.450451,-1.36488 -0.299272,-4.13728 0.51259,-5.52261 0.829278,-1.41506 2.754572,-2.452071 4.5335,-3.322421 1.505359,-0.736502 3.909523,-1.751443 4.515499,-1.518909 0.7831,0.300504 2.179412,3.279454 2.170337,5.1198 -0.01005,2.03806 -0.900353,3.02143 -2.25707,4.52643 -1.906416,2.11478 -4.979936,3.09825 -7.699975,2.11832 z m 3.576795,-6.18618 c 0.14248,-0.18985 0.236868,-0.494 0.20975,-0.67591 -0.02712,-0.1819 -0.06419,-0.44704 -0.08238,-0.58921 -0.01819,-0.14217 -0.322745,-0.44828 -0.676789,-0.68026 -0.754139,-0.494132 -1.595238,-0.190986 -1.869736,0.67388 -0.522434,1.64605 1.38546,2.64882 2.419155,1.2715 z"
         id="path1507"
         sodipodi:nodetypes="scsssssssssssss"
         inkscape:export-xdpi="96"
         inkscape:export-ydpi="96" />
      <path
         style="fill:#eb272d;stroke-width:0.264583"
         d="m 70.351545,112.30949 c -2.214226,-0.72372 -3.945879,-2.24498 -4.793747,-4.2113 -0.420409,-0.97499 -0.402553,-1.10098 0.08669,-0.61173 1.095064,1.09506 4.59405,1.27113 6.605656,0.33238 1.496213,-0.69822 3.086893,-2.32207 3.725672,-3.80335 0.90207,-2.09184 0.402836,-5.600822 -0.995847,-6.999504 L 74.4147,96.450717 76.229977,96.62023 c 3.382309,0.315846 5.900689,1.703231 6.635133,4.41681 0.410022,1.51492 0.201277,4.51732 -0.527533,6.08275 -0.887416,1.9061 -3.471702,4.04179 -5.37054,4.76962 -1.906304,0.7307 -5.053702,0.93056 -6.615497,0.42008 z"
         id="path1505"
         sodipodi:nodetypes="sssssscssssss"
         inkscape:export-xdpi="96"
         inkscape:export-ydpi="96" />
      <path
         style="fill:#030202;stroke-width:0.264583"
         d="m 94.210565,163.96819 c -1.116412,-0.87375 -1.435134,-1.26803 -4.034848,-4.9914 -4.20071,-6.01636 -7.29153,-8.44139 -11.068074,-8.6839 -4.351083,-0.27941 -7.526128,1.33379 -15.971498,8.1149 -3.812832,3.06147 -5.634238,4.00858 -7.708997,4.00858 -1.245842,0 -1.670697,-0.12265 -2.321329,-0.67012 -1.271549,-1.06994 -1.452544,-2.05526 -1.295285,-7.05139 l 0.139931,-4.4456 -0.518841,0.65959 c -1.174798,1.49352 -4.472261,0.23162 -4.864982,-1.86176 -0.200409,-1.06827 0.403421,-2.28297 2.331072,-4.68931 2.168679,-2.70722 2.688536,-3.90786 2.803513,-6.47491 0.08023,-1.7912 -0.03085,-2.61036 -0.627858,-4.63021 -0.457929,-1.5493 -0.771275,-3.33743 -0.849955,-4.85032 -0.155546,-2.9909 0.223115,-3.97682 3.012175,-7.84279 2.339173,-3.24238 4.334405,-7.21531 5.089259,-10.13381 1.840129,-7.1145 2.808169,-35.594525 1.378211,-40.547392 -0.136545,-0.472943 -0.156894,-0.859896 -0.04522,-0.859896 0.111673,0 0.907034,0.496782 1.767468,1.103961 8.322878,5.873163 18.678872,17.28802 26.352572,29.04703 1.277882,1.958207 2.593165,3.710157 2.922846,3.893227 1.798757,0.99886 4.589709,-0.28412 5.814344,-2.67281 0.473456,-0.923494 0.520192,-1.412724 0.417041,-4.365623 -0.159488,-4.56579 -1.008729,-6.428779 -3.094588,-6.788644 -0.52243,-0.09013 -1.886857,-0.686517 -3.032061,-1.325298 -2.905043,-1.620396 -3.720161,-1.801813 -5.862913,-1.304875 -0.959765,0.222583 -2.074071,0.404699 -2.476238,0.404699 -1.634826,0 -2.694675,-2.562019 -1.733185,-4.189694 0.667967,-1.130778 2.761615,-2.201222 5.490668,-2.807277 l 0.744474,-0.16533 -1.029737,-1.247496 c -2.205755,-2.672202 -3.910896,-5.709964 -5.164775,-9.201208 -0.860375,-2.395588 -1.059641,-3.975349 -0.647592,-5.134 0.642813,-1.807533 3.266038,-2.757735 4.422005,-1.601768 0.288235,0.288233 1.131808,1.746749 1.87461,3.241146 1.224608,2.463714 3.055316,5.156502 3.323413,4.888405 0.05865,-0.05865 -0.179507,-1.345099 -0.529238,-2.858772 -0.790221,-3.420122 -1.000535,-5.697448 -0.728377,-7.886948 0.262117,-2.108728 0.827545,-2.670392 2.688294,-2.670392 2.421644,0 3.130327,1.122223 4.093569,6.482292 0.456886,2.542383 1.579928,5.416967 1.956245,5.007277 0.123661,-0.134627 0.543671,-1.375871 0.933357,-2.758319 1.279316,-4.538487 2.805669,-6.335753 5.389109,-6.345647 0.87243,-0.0033 1.2951,0.154234 1.81902,0.678157 0.58505,0.585055 0.66082,0.840733 0.53063,1.790608 -0.0835,0.609453 -0.59357,2.23709 -1.13341,3.616969 -0.85009,2.172924 -0.97969,2.792301 -0.96793,4.625538 0.007,1.164167 0.26448,3.242186 0.57115,4.617821 0.66715,2.992639 0.70818,5.229071 0.13164,7.174261 -0.35337,1.192219 -0.75356,1.752661 -2.34864,3.289168 -2.8881,2.782036 -2.858292,2.688037 -3.031203,9.558925 l -0.147341,5.854755 -1.156499,2.20869 c -2.688145,5.13384 -2.763496,8.35057 -0.34031,14.52801 4.614913,11.76482 6.690553,22.72054 6.315373,33.334 -0.26989,7.63502 -1.5849,11.36533 -4.546371,12.89676 -0.438428,0.22672 -1.571995,0.46648 -2.519042,0.53279 -1.509763,0.10573 -1.819691,0.044 -2.515652,-0.50065 z m 4.115697,-2.618 c 0.696955,-0.373 1.330259,-1.67052 1.739558,-3.56403 0.51184,-2.36792 0.97347,-10.95223 0.7744,-14.40051 -0.43192,-7.48167 -2.568941,-15.9919 -6.416289,-25.55157 -2.981968,-7.40942 -8.606047,-18.123961 -9.513295,-18.123961 -0.315317,0 -0.371361,0.147399 -0.226351,0.595311 0.106,0.32742 0.251759,1.45452 0.323911,2.50466 0.351977,5.12292 -3.141692,9.87541 -8.443468,11.48577 -2.782409,0.84513 -6.137743,0.64344 -8.480212,-0.50975 -1.591544,-0.78352 -3.169444,-2.1704 -3.847179,-3.38144 -0.237911,-0.42513 -0.356863,-0.4456 -0.893322,-0.15374 -1.540206,0.83793 -1.521452,0.78759 -3.137047,8.42135 -4.96919,23.47964 -6.788603,37.71575 -5.141454,40.22962 0.876917,1.33834 2.864972,0.52648 6.438345,-2.62922 7.040793,-6.21783 10.087806,-8.12635 14.099693,-8.83144 6.273734,-1.10262 10.724986,1.47815 16.410636,9.51463 1.35261,1.91187 2.744943,3.74401 3.094074,4.07144 0.691388,0.64839 2.306894,0.81049 3.218,0.32288 z M 55.06706,128.95646 c 0.517755,-2.88101 0.878793,-5.40128 0.802306,-5.6006 -0.732322,-1.90841 -3.884347,3.77201 -3.469292,6.25218 0.161076,0.96251 1.517378,4.79485 1.650006,4.66222 0.04158,-0.0416 0.499224,-2.4328 1.01698,-5.3138 z m 21.899982,-17.06705 c 1.882336,-0.72151 4.277186,-2.97443 5.212149,-4.90325 0.522071,-1.07703 0.642472,-1.74092 0.647777,-3.57187 0.0058,-2.00023 -0.07652,-2.39023 -0.744276,-3.526266 -2.005922,-3.412632 -7.018948,-4.256643 -11.781846,-1.983631 -2.206237,1.052891 -4.553782,3.340777 -5.006354,4.879127 -1.214924,4.12969 0.934466,8.1785 5.057053,9.52597 1.561795,0.51048 4.709193,0.31062 6.615497,-0.42008 z"
         id="path1503"
         inkscape:export-xdpi="96"
         inkscape:export-ydpi="96" />
    </g>
    <text
       xml:space="preserve"
       style="font-style:normal;font-weight:normal;font-size:16.9586px;line-height:1.25;font-family:sans-serif;white-space:pre;fill:#000000;fill-opacity:1;stroke:none;stroke-width:0.423967"
       x="45.287613"
       y="181.54874"
       id="text1494"
       inkscape:export-xdpi="96"
       inkscape:export-ydpi="96"><tspan
         sodipodi:role="line"
         id="tspan1497"
         x="45.287613"
         y="181.54874"
         style="font-style:normal;font-variant:normal;font-weight:bold;font-stretch:normal;font-size:16.9586px;font-family:'Courier New';-inkscape-font-specification:'Courier New, Bold';font-variant-ligatures:normal;font-variant-caps:normal;font-variant-numeric:normal;font-variant-east-asian:normal;stroke-width:0.423967"><tspan
           id="tspan1492"
           x="45.287613"
           y="181.54874"
           style="font-style:normal;font-variant:normal;font-weight:bold;font-stretch:normal;font-size:16.9586px;font-family:'Courier New';-inkscape-font-specification:'Courier New, Bold';font-variant-ligatures:normal;font-variant-caps:normal;font-variant-numeric:normal;font-variant-east-asian:normal;stroke-width:0.423967">COBOLD</tspan></tspan><tspan
         sodipodi:role="line"
         id="tspan1499"
         x="45.287613"
         y="202.88065"
         style="stroke-width:0.423967" /></text>
  </g>
</svg>
