<?xml version="1.0" encoding="UTF-8" standalone="no"?>
<svg
   xmlns:dc="http://purl.org/dc/elements/1.1/"
   xmlns:cc="http://creativecommons.org/ns#"
   xmlns:rdf="http://www.w3.org/1999/02/22-rdf-syntax-ns#"
   xmlns:svg="http://www.w3.org/2000/svg"
   xmlns="http://www.w3.org/2000/svg"
   xmlns:xlink="http://www.w3.org/1999/xlink"
   xmlns:sodipodi="http://sodipodi.sourceforge.net/DTD/sodipodi-0.dtd"
   xmlns:inkscape="http://www.inkscape.org/namespaces/inkscape"
   width="589.827"
   height="361.238"
   version="1.2"
   viewBox="0 0 442.37 270.929"
   id="svg58"
   sodipodi:docname="Lua_n_logo.svg"
   inkscape:version="1.0.1 (3bc2e813f5, 2020-09-07)">
  <metadata
     id="metadata62">
    <rdf:RDF>
      <cc:Work
         rdf:about="">
        <dc:format>image/svg+xml</dc:format>
        <dc:type
           rdf:resource="http://purl.org/dc/dcmitype/StillImage" />
        <dc:title></dc:title>
      </cc:Work>
    </rdf:RDF>
  </metadata>
  <sodipodi:namedview
     pagecolor="#ffffff"
     bordercolor="#666666"
     borderopacity="1"
     objecttolerance="10"
     gridtolerance="10"
     guidetolerance="10"
     inkscape:pageopacity="0"
     inkscape:pageshadow="2"
     inkscape:window-width="2461"
     inkscape:window-height="1413"
     id="namedview60"
     showgrid="false"
     inkscape:lockguides="true"
     inkscape:zoom="1.4673771"
     inkscape:cx="262.04374"
     inkscape:cy="298.28486"
     inkscape:window-x="90"
     inkscape:window-y="-9"
     inkscape:window-maximized="1"
     inkscape:current-layer="svg58" />
  <defs
     id="defs36">
    <linearGradient
       id="linearGradient1099"
       x1="-.456"
       x2=".582"
       gradientTransform="rotate(-36.46 550.846 -214.337) scale(132.798)"
       gradientUnits="userSpaceOnUse">
      <stop
         offset=".57"
         stop-color="#3E863D"
         id="stop1093" />
      <stop
         offset=".72"
         stop-color="#619857"
         id="stop1095" />
      <stop
         offset="1"
         stop-color="#76AC64"
         id="stop1097"
         style="stop-color:#4c733e;stop-opacity:1" />
    </linearGradient>
    <clipPath
       id="a">
      <path
         d="M239.03 226.605l-42.13 24.317c-1.578.91-2.546 2.59-2.546 4.406v48.668c0 1.817.968 3.496 2.546 4.406l42.133 24.336c1.575.907 3.517.907 5.09 0l42.126-24.336c1.57-.91 2.54-2.59 2.54-4.406v-48.668c0-1.816-.97-3.496-2.55-4.406l-42.12-24.317c-.79-.453-1.67-.68-2.55-.68-.88 0-1.76.227-2.55.68"
         id="path2" />
    </clipPath>
    <linearGradient
       id="b"
       x1="-.348"
       x2="1.251"
       gradientTransform="rotate(116.114 53.1 202.97) scale(86.48)"
       gradientUnits="userSpaceOnUse">
      <stop
         offset=".3"
         stop-color="#3E863D"
         id="stop5" />
      <stop
         offset=".5"
         stop-color="#55934F"
         id="stop7" />
      <stop
         offset=".8"
         stop-color="#5AAD45"
         id="stop9" />
    </linearGradient>
    <clipPath
       id="c">
      <path
         d="M195.398 307.086c.403.523.907.976 1.5 1.316l36.14 20.875 6.02 3.46c.9.52 1.926.74 2.934.665.336-.027.672-.09 1-.183l44.434-81.36c-.34-.37-.738-.68-1.184-.94l-27.586-15.93-14.582-8.39c-.414-.24-.863-.41-1.32-.53zm0 0"
         id="path12" />
    </clipPath>
    <linearGradient
       id="d"
       x1="-.456"
       x2=".582"
       gradientTransform="rotate(-36.46 550.846 -214.337) scale(132.798)"
       gradientUnits="userSpaceOnUse">
      <stop
         offset=".57"
         stop-color="#3E863D"
         id="stop15" />
      <stop
         offset=".72"
         stop-color="#619857"
         id="stop17" />
      <stop
         offset="1"
         stop-color="#76AC64"
         id="stop19" />
    </linearGradient>
    <clipPath
       id="e">
      <path
         d="M241.066 225.953c-.707.07-1.398.29-2.035.652l-42.01 24.247 45.3 82.51c.63-.09 1.25-.3 1.81-.624l42.13-24.336c1.3-.754 2.19-2.03 2.46-3.476l-46.18-78.89c-.34-.067-.68-.102-1.03-.102-.14 0-.28.007-.42.02"
         id="path22" />
    </clipPath>
    <linearGradient
       id="f"
       x1=".043"
       x2=".984"
       gradientTransform="matrix(102.16743,0,0,102.16743,189.80694,277.03277)"
       gradientUnits="userSpaceOnUse">
      <stop
         offset=".16"
         stop-color="#6BBF47"
         id="stop25" />
      <stop
         offset=".38"
         stop-color="#79B461"
         id="stop27" />
      <stop
         offset=".47"
         stop-color="#75AC64"
         id="stop29" />
      <stop
         offset=".7"
         stop-color="#659E5A"
         id="stop31" />
      <stop
         offset=".9"
         stop-color="#3E863D"
         id="stop33" />
    </linearGradient>
    <linearGradient
       inkscape:collect="always"
       xlink:href="#f"
       id="linearGradient1083"
       x1="298.43387"
       y1="294.78671"
       x2="299.23932"
       y2="236.00826"
       gradientUnits="userSpaceOnUse"
       gradientTransform="translate(-150.26839,-126.24589)" />
    <linearGradient
       inkscape:collect="always"
       xlink:href="#linearGradient1099"
       id="linearGradient1091"
       x1="267.21231"
       y1="275.57901"
       x2="411.54199"
       y2="184.08907"
       gradientUnits="userSpaceOnUse"
       gradientTransform="translate(-150.26839,-126.24589)" />
    <linearGradient
       inkscape:collect="always"
       xlink:href="#f"
       id="linearGradient1107"
       x1="300.85065"
       y1="254.57298"
       x2="360.65091"
       y2="271.52277"
       gradientUnits="userSpaceOnUse"
       gradientTransform="translate(-150.26839,-126.24589)" />
    <linearGradient
       inkscape:collect="always"
       xlink:href="#d"
       id="linearGradient1115"
       x1="329.94464"
       y1="205.85236"
       x2="361.41708"
       y2="236.00826"
       gradientUnits="userSpaceOnUse"
       gradientTransform="translate(-150.26839,-126.24589)" />
  </defs>
  <path
     fill="#689f63"
     fill-rule="evenodd"
     d="m 278.88543,105.2 c 0.3,-0.177 0.676,-0.177 0.98,0 l 8.13,4.69 c 0.304,0.176 0.49,0.5 0.49,0.85 v 9.39 c 0,0.35 -0.186,0.674 -0.49,0.85 l -8.13,4.69 c -0.304,0.177 -0.68,0.177 -0.98,0 l -8.125,-4.69 c -0.31,-0.176 -0.5,-0.5 -0.5,-0.85 v -9.39 c 0,-0.35 0.18,-0.674 0.49,-0.85 z m 0,0"
     id="path44" />
  <path
     fill="#333333"
     fill-rule="evenodd"
     d="m 295.16541,107.91889 c 0,-0.457 -0.243,-0.88 -0.64,-1.10601 l -14.548,-8.385999 c -0.395,-0.22699 -0.883,-0.22699 -1.277,0 l -14.55,8.385999 c -0.4,0.22701 -0.64,0.65001 -0.64,1.10601 v 16.79599 c 0,0.45801 0.24,0.88001 0.63,1.11 l 14.54,8.4 c 0.40001,0.23 0.89,0.23 1.29,0 l 14.55,-8.4 c 0.4,-0.22999 0.64,-0.65199 0.64,-1.11 z m 3.93,61.96767 c -0.794,0.442 -1.76,0.43 -2.544,-0.027 -0.78,-0.46 -1.262,-1.3 -1.262,-2.21 v -2.56568 c 0,-0.64 -0.34,-1.23 -0.894,-1.55 -0.55,-0.32 -1.235,-0.32 -1.79,0 l -10.61,6.111 c -1.58,0.914 -3.526,0.914 -5.112,0 l -42.37,-24.453 c -1.583,-0.91 -2.56,-2.6 -2.56,-4.42 V 91.851891 c 0,-1.83 0.977,-3.51 2.56,-4.43 l 42.37,-24.47 c 1.582,-0.91 3.53001,-0.91 5.117,0 l 42.37,24.48 c 1.58,0.91999 2.56,2.6 2.56,4.42999 v 59.485679 c 0,1.856 -1.01,3.563 -2.63,4.47 z"
     id="path42-1"
     style="stroke-width:0.999999;fill:#000000;fill-opacity:1"
     sodipodi:nodetypes="cccccssccccccccsscccccssccccsscc" />
  <path
     id="path42-2"
     style="stroke-width:0.999999;fill:#000000;fill-opacity:1"
     d="m 56.976361,40.223858 c 0.438751,0.0049 0.876556,0.121605 1.26856,0.3501 0.779993,0.459999 1.257662,1.300465 1.261232,2.210457 l 0.414548,72.376565 c 1.867684,1.18223 0,0 0.826172,0.38535 0.30798,0.30468 0.656318,0.57449 1.041512,0.79688 l 26.554736,15.33108 c 1.576165,0.91 2.538949,2.60136 2.562012,4.44142 l -0.10254,28.99809 c 0.0121,0.91918 -0.479716,1.77122 -1.280275,2.21778 -0.777707,0.44704 -1.759286,0.4478 -2.547365,-0.007 L 30.096432,134.58086 c -1.593483,-0.91999 -2.5724,-2.60573 -2.57081,-4.43848 l 0.07325,-23.56681 c -0.004,-0.54913 0.09455,-1.08443 0.266603,-1.59375 l 0,-45.896598 c 0,-1.855998 1.009397,-3.562244 2.6294,-4.469243 L 55.700481,40.547588 c 0.396998,-0.220995 0.837129,-0.328605 1.27588,-0.32373 z"
     sodipodi:nodetypes="cccccccccccccccsccc" />
  <path
     id="path42-3-0"
     style="fill:url(#linearGradient1083);fill-opacity:1;stroke-width:0.999999"
     d="m 119.10562,74.278657 c -0.44288,0 -0.88531,0.11802 -1.27881,0.35303 -0.776,0.45 -1.26856,1.29899 -1.26856,2.20899 l -0.082,65.630983 c 0,1.00535 0.2972,1.96075 0.81885,2.77442 l 31.67583,-18.28861 c -0.54304,-0.82271 -0.85546,-1.79358 -0.85546,-2.81397 V 93.481337 c 0,-1.82001 -0.98295,-3.49995 -2.56495,-4.43996 l -25.1646,-14.40969 c -0.39499,-0.23501 -0.8374,-0.35303 -1.28027,-0.35303 z" />
  <path
     id="path42-3-5-5"
     style="fill:url(#linearGradient1115);fill-opacity:1;stroke-width:0.999999"
     d="m 208.51933,74.278657 c 0.44286,0 0.8853,0.11802 1.27881,0.35303 0.77599,0.45 1.26854,1.29899 1.26854,2.20899 l 0.082,65.630983 c 0,1.00534 -0.29721,1.96075 -0.81886,2.77442 L 178.654,126.95747 c 0.54304,-0.82271 0.85547,-1.79358 0.85547,-2.81397 V 93.481327 c 0,-1.82 0.98294,-3.49994 2.56494,-4.43995 l 25.1646,-14.40969 c 0.395,-0.23501 0.83739,-0.35303 1.28028,-0.35303 z" />
  <path
     id="path42-3-82"
     style="fill:url(#linearGradient1091);fill-opacity:1;stroke-width:0.999999"
     d="m 148.97088,126.95769 -31.62311,18.25784 c 0.41682,0.58231 0.95146,1.08303 1.59376,1.45313 l 42.35603,24.37065 c 0.715,0.42001 1.51564,0.63942 2.32765,0.66944 h 0.43798 c 0.0328,-0.001 0.0653,-0.007 0.0982,-0.009 v -36.53474 c -0.10701,0.007 -0.21324,0.0205 -0.32081,0.0205 -0.87599,0 -1.76897,-0.22602 -2.54297,-0.68701 l -10.71535,-6.1714 c -1.31858,-1.03189 0,0 -1.61133,-1.36963 z m -31.62311,18.25784 c -0.58206,-0.96622 -0.4766,-0.77701 -0.0527,0.0308 z" />
  <path
     id="path42-3-82-3"
     style="fill:url(#linearGradient1107);fill-opacity:1;stroke-width:0.999999"
     d="m 178.70671,126.98824 31.62311,18.25784 c -0.41682,0.58231 -0.95146,1.08303 -1.59376,1.45313 l -42.35603,24.37065 c -0.715,0.42001 -1.51564,0.63942 -2.32765,0.66944 h -0.43798 c -0.0328,-9.7e-4 -0.0653,-0.007 -0.0982,-0.009 v -36.53474 c 0.10701,0.007 0.21324,0.0205 0.32081,0.0205 0.87599,0 1.76897,-0.22602 2.54297,-0.68701 l 10.71535,-6.1714 c 1.31858,-1.03189 0,0 1.61133,-1.36963 z m 31.62311,18.25784 c 0.58206,-0.96622 0.4766,-0.77701 0.0527,0.0308 z" />
</svg>
