<?xml version="1.0" encoding="UTF-8" standalone="no"?>
<svg
   xmlns:dc="http://purl.org/dc/elements/1.1/"
   xmlns:cc="http://creativecommons.org/ns#"
   xmlns:rdf="http://www.w3.org/1999/02/22-rdf-syntax-ns#"
   xmlns:svg="http://www.w3.org/2000/svg"
   xmlns="http://www.w3.org/2000/svg"
   xmlns:sodipodi="http://sodipodi.sourceforge.net/DTD/sodipodi-0.dtd"
   xmlns:inkscape="http://www.inkscape.org/namespaces/inkscape"
   width="210mm"
   height="297mm"
   viewBox="0 0 210 297"
   version="1.1"
   id="svg8"
   inkscape:version="1.0.1 (3bc2e813f5, 2020-09-07)"
   sodipodi:docname="php.svg">
  <defs
     id="defs2">
    <pattern
       id="EMFhbasepattern"
       patternUnits="userSpaceOnUse"
       width="6"
       height="6"
       x="0"
       y="0" />
  </defs>
  <sodipodi:namedview
     id="base"
     pagecolor="#ffffff"
     bordercolor="#666666"
     borderopacity="1.0"
     inkscape:pageopacity="0.0"
     inkscape:pageshadow="2"
     inkscape:zoom="0.49497475"
     inkscape:cx="195.5049"
     inkscape:cy="877.389"
     inkscape:document-units="mm"
     inkscape:current-layer="layer1"
     inkscape:document-rotation="0"
     showgrid="false"
     showguides="false"
     inkscape:window-width="1436"
     inkscape:window-height="1208"
     inkscape:window-x="349"
     inkscape:window-y="187"
     inkscape:window-maximized="0" />
  <metadata
     id="metadata5">
    <rdf:RDF>
      <cc:Work
         rdf:about="">
        <dc:format>image/svg+xml</dc:format>
        <dc:type
           rdf:resource="http://purl.org/dc/dcmitype/StillImage" />
        <dc:title></dc:title>
      </cc:Work>
    </rdf:RDF>
  </metadata>
  <g
     inkscape:label="Ebene 1"
     inkscape:groupmode="layer"
     id="layer1">
    <path
       style="fill:#d0d0d0;fill-opacity:1;stroke-width:0.211412"
       d="m 126.33772,169.29995 c 0.0101,-0.24629 0.0602,-0.29638 0.12773,-0.12773 0.0611,0.15261 0.0536,0.33496 -0.0167,0.40521 -0.0703,0.0703 -0.12022,-0.0546 -0.11104,-0.27748 z m 13.31899,-20.92984 c 0.0101,-0.24628 0.0602,-0.29638 0.12772,-0.12773 0.0611,0.15262 0.0536,0.33496 -0.0167,0.40521 -0.0703,0.0702 -0.12022,-0.0546 -0.11104,-0.27748 z m -27.90645,-2.74836 c 0.0101,-0.24628 0.0602,-0.29638 0.12773,-0.12773 0.0611,0.15261 0.0536,0.33496 -0.0167,0.40521 -0.0703,0.0703 -0.12022,-0.0546 -0.11104,-0.27748 z m 9.72497,-5.70814 c 0.0102,-0.24628 0.0602,-0.29637 0.12773,-0.12772 0.0611,0.15261 0.0536,0.33495 -0.0167,0.4052 -0.0703,0.0702 -0.12022,-0.0546 -0.11104,-0.27748 z m 20.50701,-1.69129 c 0.0102,-0.24629 0.0602,-0.29638 0.12773,-0.12773 0.0611,0.15261 0.0536,0.33495 -0.0167,0.4052 -0.0702,0.0703 -0.12022,-0.0546 -0.11104,-0.27747 z m -47.990625,-1.05707 c 0.01015,-0.24628 0.06024,-0.29638 0.127727,-0.12773 0.06107,0.15262 0.05356,0.33496 -0.01668,0.40521 -0.07025,0.0702 -0.120217,-0.0546 -0.111038,-0.27748 z m 1.902712,-8.4565 c 0.01015,-0.24628 0.06024,-0.29637 0.127727,-0.12772 0.06107,0.15261 0.05356,0.33495 -0.01668,0.4052 -0.07025,0.0702 -0.120217,-0.0546 -0.111038,-0.27748 z"
       id="path886" />
    <path
       style="fill:#a3a3a3;fill-opacity:1;stroke-width:0.211412"
       d="m 97.727495,83.643297 c 1.424391,-0.03658 3.755215,-0.03658 5.179605,0 1.42439,0.03658 0.25898,0.0665 -2.5898,0.0665 -2.848785,0 -4.014197,-0.02993 -2.589805,-0.0665 z"
       id="path884" />
    <path
       style="fill:#8c8c8c;fill-opacity:1;stroke-width:0.211412"
       d="m 107.76959,213.45051 c 1.48253,-0.0363 3.90848,-0.0363 5.39101,0 1.48253,0.0363 0.26956,0.0661 -2.6955,0.0661 -2.96506,0 -4.17804,-0.0297 -2.69551,-0.0661 z M 105.56297,83.656803 c 0.15261,-0.06107 0.33495,-0.05356 0.40521,0.01669 0.0703,0.07025 -0.0546,0.120218 -0.27748,0.111039 -0.24629,-0.01014 -0.29638,-0.06024 -0.12773,-0.127729 z"
       id="path882" />
    <path
       style="fill:#767676;fill-opacity:1;stroke-width:0.211412"
       d="m 106.25354,208.19984 c 0.0101,-0.24628 0.0602,-0.29638 0.12772,-0.12773 0.0611,0.15261 0.0536,0.33496 -0.0167,0.40521 -0.0703,0.0703 -0.12021,-0.0546 -0.11103,-0.27748 z m 12.89616,-7.39944 c 0.0101,-0.24628 0.0602,-0.29637 0.12772,-0.12772 0.0611,0.15261 0.0536,0.33495 -0.0167,0.4052 -0.0703,0.0703 -0.12021,-0.0546 -0.11103,-0.27748 z m -10.99345,-1.05706 c 0.0101,-0.24628 0.0602,-0.29638 0.12773,-0.12773 0.0611,0.15262 0.0536,0.33496 -0.0167,0.40521 -0.0703,0.0703 -0.12022,-0.0546 -0.11104,-0.27748 z m 12.89616,-7.39943 c 0.0102,-0.24629 0.0602,-0.29638 0.12773,-0.12773 0.0611,0.15261 0.0536,0.33495 -0.0167,0.40521 -0.0703,0.0703 -0.12022,-0.0546 -0.11104,-0.27748 z m -13.5304,-28.7521 c 0.0102,-0.24628 0.0602,-0.29638 0.12773,-0.12773 0.0611,0.15261 0.0536,0.33496 -0.0167,0.40521 -0.0703,0.0702 -0.12022,-0.0546 -0.11104,-0.27748 z m -16.912995,-11.8391 c 0.01015,-0.24628 0.06024,-0.29638 0.127727,-0.12773 0.06107,0.15262 0.05356,0.33496 -0.01668,0.40521 -0.07025,0.0702 -0.120218,-0.0546 -0.111038,-0.27748 z m -10.993447,-1.05706 c 0.01015,-0.24628 0.06024,-0.29638 0.127726,-0.12773 0.06107,0.15261 0.05356,0.33496 -0.01668,0.40521 -0.07025,0.0703 -0.120218,-0.0546 -0.111038,-0.27748 z m 41.436842,-8.4565 c 0.0102,-0.24628 0.0602,-0.29638 0.12773,-0.12773 0.0611,0.15262 0.0536,0.33496 -0.0167,0.40521 -0.0703,0.0703 -0.12022,-0.0546 -0.11104,-0.27748 z m 20.50701,-1.6913 c 0.0102,-0.24628 0.0602,-0.29638 0.12772,-0.12773 0.0611,0.15262 0.0536,0.33496 -0.0167,0.40521 -0.0702,0.0702 -0.12021,-0.0546 -0.11103,-0.27748 z m -18.19816,-8.53211 c 0,-0.10941 0.094,-0.25706 0.20899,-0.3281 0.11984,-0.0741 0.15528,0.0108 0.0831,0.19894 -0.14054,0.36625 -0.29207,0.43326 -0.29207,0.12916 z m 11.22155,-0.1358 c 0.0101,-0.24628 0.0602,-0.29638 0.12772,-0.12773 0.0611,0.15261 0.0536,0.33496 -0.0167,0.40521 -0.0702,0.0702 -0.12021,-0.0546 -0.11103,-0.27748 z m -38.265658,-5.49672 c 0.01015,-0.24629 0.06024,-0.29638 0.127727,-0.12773 0.06107,0.15261 0.05356,0.33496 -0.01668,0.40521 -0.07025,0.0703 -0.120217,-0.0546 -0.111038,-0.27748 z m -3.3826,-34.88306 c 0.01015,-0.246285 0.06024,-0.296379 0.127727,-0.127729 0.06107,0.152613 0.05356,0.334956 -0.01668,0.405208 -0.07025,0.07025 -0.120218,-0.05462 -0.111038,-0.277479 z"
       id="path880" />
    <path
       style="fill:#494949;fill-opacity:1;stroke-width:0.211412"
       d="m 116.82416,210.9482 c 0.0101,-0.24628 0.0602,-0.29638 0.12773,-0.12773 0.0611,0.15262 0.0536,0.33496 -0.0167,0.40521 -0.0703,0.0702 -0.12022,-0.0546 -0.11104,-0.27748 z M 79.228905,165.45988 c 1.48253,-0.0363 3.908488,-0.0363 5.391017,0 1.48253,0.0363 0.269551,0.0661 -2.695508,0.0661 -2.96506,0 -4.178039,-0.0297 -2.695509,-0.0661 z m 19.18568,0.0102 c 4.441615,-0.15027 8.831245,-0.1557 8.741345,-0.0108 -0.0541,0.0872 -2.44738,0.139 -5.31837,0.11509 -2.870989,-0.0239 -4.411328,-0.0708 -3.422975,-0.10427 z m 41.055155,-0.01 c 1.24353,-0.0373 3.33651,-0.0374 4.65107,-2.2e-4 1.31456,0.0372 0.29713,0.0677 -2.26096,0.0678 -2.5581,1.6e-4 -3.63364,-0.0302 -2.39011,-0.0675 z m -27.71948,-20.47271 c 0.0101,-0.24628 0.0602,-0.29638 0.12773,-0.12773 0.0611,0.15262 0.0536,0.33496 -0.0167,0.40521 -0.0703,0.0702 -0.12022,-0.0546 -0.11104,-0.27748 z m -5.47304,-13.35353 c 1.47567,-0.0363 3.94919,-0.0364 5.49672,-2.2e-4 1.54754,0.0362 0.34017,0.0659 -2.68303,0.066 -3.02319,1.2e-4 -4.28936,-0.0295 -2.81369,-0.0658 z m 20.08418,0 c 1.47567,-0.0363 3.9492,-0.0364 5.49673,-2.2e-4 1.54753,0.0362 0.34017,0.0659 -2.68303,0.066 -3.0232,1.2e-4 -4.28936,-0.0295 -2.8137,-0.0658 z m 20.08419,0 c 1.47566,-0.0363 3.94919,-0.0364 5.49672,-2.2e-4 1.54753,0.0362 0.34017,0.0659 -2.68303,0.066 -3.0232,1.2e-4 -4.28936,-0.0295 -2.81369,-0.0658 z"
       id="path878" />
    <path
       style="fill:#333333;fill-opacity:1;stroke-width:0.211412"
       d="m 105.51745,212.18144 c 0.16475,-0.66859 0.58677,-2.54752 0.93784,-4.17539 0.35107,-1.62788 0.82616,-3.72086 1.05576,-4.65108 0.2296,-0.93021 0.69415,-2.97563 1.03232,-4.54537 0.68654,-3.18673 1.843,-8.3521 3.28962,-14.69316 0.53054,-2.32554 1.20699,-5.36988 1.50323,-6.7652 0.29624,-1.39532 0.59328,-2.67965 0.6601,-2.85407 0.0668,-0.17442 0.14057,-0.45982 0.16387,-0.63424 0.0421,-0.31468 0.60832,-2.85733 1.81267,-8.13938 0.34466,-1.5116 0.8117,-3.60458 1.03786,-4.65107 0.6226,-2.88082 1.41575,-6.41529 2.22976,-9.93639 0.40322,-1.74415 0.97382,-4.26524 1.26802,-5.60243 0.2942,-1.33718 0.86923,-3.95341 1.27786,-5.81384 0.40862,-1.86043 0.82715,-3.66801 0.93006,-4.01684 0.1029,-0.34883 0.34415,-1.37154 0.5361,-2.27268 l 0.34899,-1.63845 h 5.50089 5.50088 l -0.15033,0.8985 c -0.0827,0.49418 -0.4293,2.04014 -0.77027,3.43546 -0.34097,1.39532 -0.75259,3.2029 -0.9147,4.01683 -0.16211,0.81394 -0.87904,4.04855 -1.59316,7.18803 -0.71412,3.13947 -1.51364,6.70706 -1.77671,7.92797 -0.26307,1.2209 -0.78362,3.55173 -1.15677,5.1796 -0.37315,1.62788 -1.06128,4.67222 -1.52918,6.7652 -0.4679,2.09298 -1.077,4.75678 -1.35354,5.91955 -0.27655,1.16277 -0.80082,3.49359 -1.16506,5.1796 -0.36424,1.68602 -0.84621,3.87414 -1.07106,4.86249 -0.22484,0.98835 -0.53996,2.41539 -0.70026,3.17119 -0.36007,1.69776 -1.68007,7.54964 -2.21747,9.83068 -0.21916,0.93021 -0.56193,2.45238 -0.76171,3.3826 -0.19978,0.93021 -0.53113,2.40481 -0.73633,3.27689 -0.20521,0.87208 -0.53883,2.34668 -0.7414,3.27689 -0.20256,0.93022 -0.58549,2.64266 -0.85095,3.80543 -0.26546,1.16277 -0.54581,2.42331 -0.62299,2.80121 l -0.14034,0.68709 h -5.56656 -5.56657 z M 76.572763,164.8779 c 0.06235,-0.34883 0.244469,-1.10991 0.404696,-1.6913 0.16023,-0.58138 0.573224,-2.38896 0.917767,-4.01683 0.344541,-1.62788 0.764032,-3.53059 0.932198,-4.22825 0.168166,-0.69766 0.451363,-1.93443 0.629326,-2.74837 0.342093,-1.5646 1.286191,-5.76452 1.615796,-7.18802 0.169676,-0.7328 0.646933,-2.85357 1.807898,-8.03367 0.156358,-0.69766 0.632872,-2.83822 1.058918,-4.75678 0.426045,-1.91857 1.007541,-4.48723 1.292213,-5.70814 0.284671,-1.22091 0.752019,-3.31389 1.038555,-4.65107 0.55641,-2.59664 1.608868,-7.23872 2.732098,-12.05051 0.177009,-0.75829 0.777135,-3.57718 0.967687,-4.54537 0.114421,-0.58139 0.345038,-1.58031 0.512481,-2.21983 0.167443,-0.63953 0.507117,-2.11413 0.754836,-3.276897 0.247716,-1.162768 0.764412,-3.446023 1.148212,-5.073899 0.383803,-1.627876 0.762895,-3.340317 0.84243,-3.805424 0.07954,-0.465108 0.423669,-2.034845 0.764743,-3.488306 0.341071,-1.45346 0.668704,-2.856711 0.728073,-3.118334 l 0.107938,-0.475678 h 5.492692 c 4.25612,0 5.49148,0.05949 5.48727,0.264266 -0.003,0.145346 -0.18239,1.02535 -0.39868,1.955565 -0.21628,0.930215 -0.6467,2.832927 -0.95647,4.228249 -0.30977,1.395323 -0.93146,4.154255 -1.38152,6.130962 -0.45007,1.976707 -1.1157,4.925906 -1.47918,6.553786 -0.36348,1.62788 -0.74768,3.34032 -0.85377,3.80542 -0.10609,0.46511 -0.52258,2.32026 -0.925545,4.12255 -0.40296,1.80229 -0.937413,4.18068 -1.187668,5.28531 -0.53321,2.35357 -1.635432,7.29392 -2.429125,10.88774 -0.308157,1.39532 -0.928251,4.10669 -1.377989,6.02526 -0.449737,1.91856 -0.918659,4.05962 -1.042047,4.75791 -0.123389,0.69828 -0.322544,1.60207 -0.442563,2.00841 -0.120021,0.40635 -0.501618,2.07072 -0.847996,3.69859 -0.346376,1.62788 -0.908979,4.14897 -1.250224,5.60243 -0.695185,2.961 -1.641455,7.13921 -2.441879,10.78204 -0.293817,1.33718 -0.699107,3.12445 -0.900651,3.97171 l -0.366439,1.54047 -5.533728,0.0451 -5.533727,0.0451 z m 19.516093,0.51464 c 1.06e-4,-0.0658 0.339015,-1.58795 0.753131,-3.3826 0.414117,-1.79465 1.038378,-4.54215 1.387249,-6.10555 0.34887,-1.5634 0.67186,-2.9033 0.717756,-2.97756 0.0459,-0.0743 0.139323,-0.45999 0.207615,-0.85717 0.154929,-0.90105 0.781345,-3.72156 1.592463,-7.17024 0.34184,-1.45346 0.71325,-3.07076 0.82534,-3.59401 0.11209,-0.52324 0.40561,-1.80757 0.65227,-2.85407 0.44735,-1.89797 0.80355,-3.45436 1.26853,-5.5428 l 0.24561,-1.10314 5.49765,-0.0596 c 3.02372,-0.0328 5.52158,-0.012 5.55081,0.0461 0.0527,0.10488 -0.3221,1.79427 -1.57137,7.08232 -0.76654,3.24471 -1.49644,6.41816 -2.1152,9.19644 -0.44913,2.01661 -1.12853,4.96929 -2.72413,11.8391 -0.47262,2.03484 -0.92158,4.06407 -0.99768,4.50939 -0.0761,0.44533 -0.24529,0.8472 -0.37595,0.89307 -0.38267,0.13431 -10.914308,0.21187 -10.914094,0.0804 z m 39.957014,0.0707 c 2.2e-4,-0.0807 1.03083,-4.62932 1.68943,-7.45625 0.33862,-1.45346 0.81755,-3.59401 1.06428,-4.75678 0.24674,-1.16277 0.50179,-2.25683 0.56677,-2.43125 0.065,-0.17441 0.14907,-0.50739 0.18685,-0.73994 0.0378,-0.23255 0.39781,-1.84986 0.80007,-3.59401 0.40225,-1.74415 1.02545,-4.45552 1.38489,-6.02526 0.35943,-1.56973 0.95736,-4.16218 1.32873,-5.76099 l 0.67521,-2.90692 h 5.54106 5.54105 l -0.31591,1.32133 c -0.17375,0.72673 -0.68921,2.93863 -1.14548,4.91534 -0.45626,1.97671 -0.87484,3.78428 -0.93018,4.01684 -0.0554,0.23255 -0.2976,1.32661 -0.53834,2.43124 -0.24075,1.10463 -0.77578,3.42941 -1.18896,5.16619 -0.41318,1.73677 -0.97669,4.2103 -1.25225,5.49672 -0.27555,1.28643 -0.69286,3.14761 -0.92736,4.13596 -0.23449,0.98836 -0.55962,2.41539 -0.72251,3.17119 -0.56038,2.60008 -0.78477,3.26729 -0.98987,2.94324 -0.10464,-0.16532 -0.19183,-0.20545 -0.19375,-0.0892 -0.002,0.13521 -1.90851,0.21141 -5.28868,0.21141 -2.90685,0 -5.28512,-0.022 -5.28505,-0.0489 z"
       id="path876" />
    <path
       style="fill:#333333;fill-opacity:1;stroke-width:0.211412"
       d="m 26.34983,212.38936 c 0.16475,-0.66859 0.58678,-2.54752 0.93785,-4.17539 0.35106,-1.62788 0.82615,-3.72086 1.05575,-4.65108 0.22961,-0.93021 0.69416,-2.97563 1.03232,-4.54537 0.68655,-3.18673 1.843,-8.3521 3.28962,-14.69316 0.53054,-2.32555 1.20699,-5.36988 1.50323,-6.7652 0.29625,-1.39533 0.59329,-2.67966 0.66011,-2.85407 0.0668,-0.17443 0.14056,-0.45982 0.16387,-0.63424 0.0421,-0.31468 0.60831,-2.85734 1.81266,-8.13938 0.34467,-1.5116 0.81171,-3.60458 1.03786,-4.65108 0.62261,-2.88082 1.41575,-6.41528 2.22976,-9.93639 0.40323,-1.74414 0.97382,-4.26523 1.26802,-5.60243 0.29421,-1.33718 0.86924,-3.95341 1.27787,-5.81384 0.40862,-1.86042 0.82714,-3.668 0.93006,-4.01683 0.1029,-0.34884 0.34415,-1.37155 0.53609,-2.27268 l 0.349,-1.63846 h 5.50088 5.50088 l -0.15033,0.89851 c -0.0827,0.49418 -0.4293,2.04013 -0.77026,3.43545 -0.34098,1.39532 -0.7526,3.2029 -0.91471,4.01683 -0.16211,0.81394 -0.87903,4.04855 -1.59316,7.18803 -0.71411,3.13948 -1.51363,6.70707 -1.7767,7.92797 -0.26307,1.22091 -0.78363,3.55174 -1.15678,5.1796 -0.37315,1.62788 -1.06127,4.67223 -1.52918,6.7652 -0.4679,2.09299 -1.077,4.75679 -1.35354,5.91956 -0.27655,1.16277 -0.80082,3.49359 -1.16505,5.1796 -0.36425,1.68602 -0.84622,3.87414 -1.07106,4.86248 -0.22484,0.98836 -0.53997,2.4154 -0.70027,3.1712 -0.36006,1.69776 -1.68007,7.54964 -2.21747,9.83068 -0.21916,0.93021 -0.56193,2.45238 -0.76171,3.3826 -0.19977,0.93021 -0.53113,2.40481 -0.73633,3.27689 -0.20521,0.87208 -0.53882,2.34668 -0.74139,3.27689 -0.20256,0.93022 -0.5855,2.64266 -0.85096,3.80543 -0.26545,1.16277 -0.5458,2.42331 -0.62299,2.80121 l -0.14034,0.68709 H 31.61688 26.0503 Z m 30.52843,-46.7182 c 2.1e-4,-0.0807 1.03083,-4.62932 1.68943,-7.45625 0.33862,-1.45346 0.81755,-3.59401 1.06427,-4.75678 0.24674,-1.16277 0.50179,-2.25683 0.56678,-2.43125 0.065,-0.17442 0.14907,-0.50739 0.18685,-0.73994 0.0378,-0.23255 0.3978,-1.84986 0.80007,-3.59401 0.40224,-1.74416 1.02544,-4.45552 1.38489,-6.02526 0.35942,-1.56974 0.95736,-4.16218 1.32873,-5.76099 l 0.6752,-2.90692 h 5.54106 5.54105 l -0.31591,1.32133 c -0.17374,0.72672 -0.6892,2.93862 -1.14547,4.91533 -0.45627,1.97671 -0.87484,3.78428 -0.93018,4.01685 -0.0554,0.23255 -0.29761,1.32661 -0.53834,2.43124 -0.24075,1.10463 -0.77578,3.42941 -1.18896,5.16619 -0.41318,1.73677 -0.9767,4.2103 -1.25225,5.49672 -0.27555,1.28643 -0.69287,3.14761 -0.92737,4.13596 -0.23449,0.98836 -0.55961,2.41539 -0.7225,3.17119 -0.56038,2.60008 -0.78477,3.26729 -0.98987,2.94323 -0.10464,-0.16531 -0.19183,-0.20544 -0.19376,-0.0892 -0.002,0.13521 -1.9085,0.21141 -5.28868,0.21141 -2.90685,0 -5.28512,-0.022 -5.28504,-0.0489 z"
       id="path876-8"
       sodipodi:nodetypes="ssscssscscsssssccccsssssssssssssssscccscssssssscccsscsssssscscc" />
  </g>
</svg>
