<?xml version="1.0" encoding="UTF-8" standalone="no"?>
<svg
   xmlns:dc="http://purl.org/dc/elements/1.1/"
   xmlns:cc="http://creativecommons.org/ns#"
   xmlns:rdf="http://www.w3.org/1999/02/22-rdf-syntax-ns#"
   xmlns:svg="http://www.w3.org/2000/svg"
   xmlns="http://www.w3.org/2000/svg"
   xmlns:sodipodi="http://sodipodi.sourceforge.net/DTD/sodipodi-0.dtd"
   xmlns:inkscape="http://www.inkscape.org/namespaces/inkscape"
   width="210mm"
   height="297mm"
   viewBox="0 0 210 297"
   version="1.1"
   id="svg8"
   inkscape:version="1.0.1 (3bc2e813f5, 2020-09-07)"
   sodipodi:docname="php.svg"

  <defs
     id="defs2">
    <pattern
       id="EMFhbasepattern"
       patternUnits="userSpaceOnUse"
       width="6"
       height="6"
       x="0"
       y="0" />
  </defs>
  <sodipodi:namedview
     id="base"
     pagecolor="#ffffff"
     bordercolor="#666666"
     borderopacity="1.0"
     inkscape:pageopacity="0.0"
     inkscape:pageshadow="2"
     inkscape:zoom="0.98994949"
     inkscape:cx="405.86373"
     inkscape:cy="522.01427"
     inkscape:document-units="mm"
     inkscape:current-layer="layer1"
     inkscape:document-rotation="0"
     showgrid="false"
     showguides="false"
     inkscape:window-width="1436"
     inkscape:window-height="1208"
     inkscape:window-x="349"
     inkscape:window-y="187"
     inkscape:window-maximized="0" />
  <metadata
     id="metadata5">
    <rdf:RDF>
      <cc:Work
         rdf:about="">
        <dc:format>image/svg+xml</dc:format>
        <dc:type
           rdf:resource="http://purl.org/dc/dcmitype/StillImage" />
        <dc:title></dc:title>
      </cc:Work>
    </rdf:RDF>
  </metadata>
  <g
     inkscape:label="Ebene 1"
     inkscape:groupmode="layer"
     id="layer1">
    <path
       style="fill:#a3a3a3;fill-opacity:1;stroke-width:0.211412"
       d="m 97.727495,83.643297 c 1.424391,-0.03658 3.755215,-0.03658 5.179605,0 1.42439,0.03658 0.25898,0.0665 -2.5898,0.0665 -2.848785,0 -4.014197,-0.02993 -2.589805,-0.0665 z"
       id="path884" />
    <path
       style="fill:#8c8c8c;fill-opacity:1;stroke-width:0.211412"
       d="m 107.76959,213.45051 c 1.48253,-0.0363 3.90848,-0.0363 5.39101,0 1.48253,0.0363 0.26956,0.0661 -2.6955,0.0661 -2.96506,0 -4.17804,-0.0297 -2.69551,-0.0661 z M 105.56297,83.656803 c 0.15261,-0.06107 0.33495,-0.05356 0.40521,0.01669 0.0703,0.07025 -0.0546,0.120218 -0.27748,0.111039 -0.24629,-0.01014 -0.29638,-0.06024 -0.12773,-0.127729 z"
       id="path882" />
    <path
       style="fill:#333333;fill-opacity:1;stroke-width:0.211412"
       d="m 108.06912,212.23489 c 0.16475,-0.66859 0.58677,-2.54752 0.93784,-4.17539 0.35107,-1.62788 0.82616,-3.72086 1.05576,-4.65108 0.2296,-0.93021 0.69415,-2.97563 1.03232,-4.54537 0.68654,-3.18673 1.843,-8.3521 3.28962,-14.69316 0.53054,-2.32554 1.20699,-5.36988 1.50323,-6.7652 0.29624,-1.39532 0.59328,-2.67965 0.6601,-2.85407 0.0668,-0.17442 0.14057,-0.45982 0.16387,-0.63424 0.0421,-0.31468 0.60832,-2.85733 1.81267,-8.13938 0.34466,-1.5116 0.8117,-3.60458 1.03786,-4.65107 0.6226,-2.88082 1.41575,-6.41529 2.22976,-9.93639 0.40322,-1.74415 0.97382,-4.26524 1.26802,-5.60243 0.2942,-1.33718 0.86923,-3.95341 1.27786,-5.81384 0.40862,-1.86043 0.82715,-3.66801 0.93006,-4.01684 0.1029,-0.34883 0.34415,-1.37154 0.5361,-2.27268 l 0.34899,-1.63845 h 5.50089 5.50088 l -0.15033,0.8985 c -0.0827,0.49418 -0.4293,2.04014 -0.77027,3.43546 -0.34097,1.39532 -0.75259,3.2029 -0.9147,4.01683 -0.16211,0.81394 -0.87904,4.04855 -1.59316,7.18803 -0.71412,3.13947 -1.51364,6.70706 -1.77671,7.92797 -0.26307,1.2209 -0.78362,3.55173 -1.15677,5.1796 -0.37315,1.62788 -1.06128,4.67222 -1.52918,6.7652 -0.4679,2.09298 -1.077,4.75678 -1.35354,5.91955 -0.27655,1.16277 -0.80082,3.49359 -1.16506,5.1796 -0.36424,1.68602 -0.84621,3.87414 -1.07106,4.86249 -0.22484,0.98835 -0.53996,2.41539 -0.70026,3.17119 -0.36007,1.69776 -1.68007,7.54964 -2.21747,9.83068 -0.21916,0.93021 -0.56193,2.45238 -0.76171,3.3826 -0.19978,0.93021 -0.53113,2.40481 -0.73633,3.27689 -0.20521,0.87208 -0.53883,2.34668 -0.7414,3.27689 -0.20256,0.93022 -0.58549,2.64266 -0.85095,3.80543 -0.26546,1.16277 -0.54581,2.42331 -0.62299,2.80121 l -0.14034,0.68709 h -5.56656 -5.56657 z M 79.12444,164.93135 c 0.0624,-0.34883 0.24447,-1.10991 0.40469,-1.6913 0.16023,-0.58138 0.57323,-2.38896 0.91777,-4.01683 0.34454,-1.62788 0.76403,-3.53059 0.9322,-4.22825 0.16816,-0.69766 0.45136,-1.93443 0.62932,-2.74837 0.3421,-1.5646 1.28619,-5.76452 1.6158,-7.18802 0.16968,-0.7328 0.64693,-2.85357 1.8079,-8.03367 0.15636,-0.69766 0.63287,-2.83822 1.05892,-4.75678 0.42604,-1.91857 1.00754,-4.48723 1.29221,-5.70814 0.28467,-1.22091 0.75202,-3.31389 1.03855,-4.65107 0.55641,-2.59663 1.60887,-7.23871 2.7321,-12.0505 0.17701,-0.75829 0.77714,-3.57718 0.96769,-4.54537 0.11442,-0.58139 0.34504,-1.58031 0.51248,-2.21983 0.16744,-0.63953 0.50712,-2.11414 0.75484,-3.276902 0.24771,-1.162768 0.76441,-3.446023 1.14821,-5.073899 0.3838,-1.627876 0.76289,-3.340317 0.84243,-3.805424 0.0795,-0.465108 0.42367,-2.034845 0.76474,-3.488306 0.34107,-1.45346 0.6687,-2.856711 0.72807,-3.118334 l 0.10794,-0.475678 h 5.49269 c 4.25612,0 5.49148,0.05949 5.48727,0.264266 -0.003,0.145346 -0.18239,1.02535 -0.39868,1.955565 -0.21628,0.930215 -0.6467,2.832927 -0.95647,4.228249 -0.30977,1.395323 -0.93146,4.154255 -1.38152,6.130962 -0.45007,1.976707 -1.1157,4.925901 -1.47918,6.553791 -0.36348,1.62788 -0.74768,3.34032 -0.85377,3.80541 -0.10609,0.46511 -0.52258,2.32027 -0.92554,4.12256 -0.40296,1.80229 -0.93741,4.18067 -1.18767,5.2853 -0.53321,2.35358 -1.63543,7.29392 -2.42912,10.88774 -0.30816,1.39532 -0.92826,4.10669 -1.37799,6.02526 -0.44974,1.91856 -0.91866,4.05962 -1.04205,4.75791 -0.12339,0.69828 -0.32254,1.60207 -0.44256,2.00841 -0.12002,0.40635 -0.50162,2.07072 -0.848,3.69859 -0.34638,1.62788 -0.90898,4.14897 -1.25022,5.60243 -0.69519,2.961 -1.64146,7.13921 -2.44188,10.78204 -0.29382,1.33718 -0.69911,3.12445 -0.90065,3.97171 l -0.36644,1.54047 -5.53373,0.0451 -5.53373,0.0451 z m 19.51609,0.51464 c 1.1e-4,-0.0658 0.33901,-1.58795 0.75313,-3.3826 0.41412,-1.79465 1.03838,-4.54215 1.38725,-6.10555 0.34887,-1.5634 0.67186,-2.9033 0.71776,-2.97756 0.0459,-0.0743 0.13932,-0.45999 0.20761,-0.85717 0.15493,-0.90105 0.78135,-3.72156 1.59246,-7.17024 0.34184,-1.45346 0.71325,-3.07076 0.82534,-3.59401 0.11209,-0.52324 0.40561,-1.80757 0.65227,-2.85407 0.44735,-1.89797 0.80355,-3.45436 1.26853,-5.5428 l 0.24561,-1.10314 5.49765,-0.0596 c 3.02372,-0.0328 5.52158,-0.012 5.55081,0.0461 0.0527,0.10488 -0.3221,1.79427 -1.57137,7.08232 -0.76654,3.24471 -1.49644,6.41816 -2.1152,9.19644 -0.44913,2.01661 -1.12853,4.96929 -2.72413,11.8391 -0.47262,2.03484 -0.92158,4.06407 -0.99768,4.50939 -0.0761,0.44533 -0.24529,0.8472 -0.37595,0.89307 -0.38267,0.13431 -10.9143,0.21187 -10.91409,0.0804 z m 39.95701,0.0707 c 2.2e-4,-0.0807 1.03083,-4.62932 1.68943,-7.45625 0.33862,-1.45346 0.81755,-3.59401 1.06428,-4.75678 0.24674,-1.16277 0.50179,-2.25683 0.56677,-2.43125 0.065,-0.17441 0.14907,-0.50739 0.18685,-0.73994 0.0378,-0.23255 0.39781,-1.84986 0.80007,-3.59401 0.40225,-1.74415 1.02545,-4.45552 1.38489,-6.02526 0.35943,-1.56973 0.95736,-4.16218 1.32873,-5.76099 l 0.67521,-2.90692 h 5.54106 5.54105 l -0.31591,1.32133 c -0.17375,0.72673 -0.68921,2.93863 -1.14548,4.91534 -0.45626,1.97671 -0.87484,3.78428 -0.93018,4.01684 -0.0554,0.23255 -0.2976,1.32661 -0.53834,2.43124 -0.24075,1.10463 -0.77578,3.42941 -1.18896,5.16619 -0.41318,1.73677 -0.97669,4.2103 -1.25225,5.49672 -0.27555,1.28643 -0.69286,3.14761 -0.92736,4.13596 -0.23449,0.98836 -0.55962,2.41539 -0.72251,3.17119 -0.56038,2.60008 -0.78477,3.26729 -0.98987,2.94324 -0.10464,-0.16532 -0.19183,-0.20545 -0.19375,-0.0892 -0.002,0.13521 -1.90851,0.21141 -5.28868,0.21141 -2.90685,0 -5.28512,-0.022 -5.28505,-0.0489 z"
       id="path876" />
    <path
       style="fill:#333333;fill-opacity:1;stroke-width:0.211412"
       d="m 26.34983,212.38936 c 0.16475,-0.66859 0.58678,-2.54752 0.93785,-4.17539 0.35106,-1.62788 0.82615,-3.72086 1.05575,-4.65108 0.22961,-0.93021 0.69416,-2.97563 1.03232,-4.54537 0.68655,-3.18673 1.843,-8.3521 3.28962,-14.69316 0.53054,-2.32555 1.20699,-5.36988 1.50323,-6.7652 0.29625,-1.39533 0.59329,-2.67966 0.66011,-2.85407 0.0668,-0.17443 0.14056,-0.45982 0.16387,-0.63424 0.0421,-0.31468 0.60831,-2.85734 1.81266,-8.13938 0.34467,-1.5116 0.81171,-3.60458 1.03786,-4.65108 0.62261,-2.88082 1.41575,-6.41528 2.22976,-9.93639 0.40323,-1.74414 0.97382,-4.26523 1.26802,-5.60243 0.29421,-1.33718 0.86924,-3.95341 1.27787,-5.81384 0.40862,-1.86042 0.82714,-3.668 0.93006,-4.01683 0.1029,-0.34884 0.34415,-1.37155 0.53609,-2.27268 l 0.349,-1.63846 h 5.50088 5.50088 l -0.15033,0.89851 c -0.0827,0.49418 -0.4293,2.04013 -0.77026,3.43545 -0.34098,1.39532 -0.7526,3.2029 -0.91471,4.01683 -0.16211,0.81394 -0.87903,4.04855 -1.59316,7.18803 -0.71411,3.13948 -1.51363,6.70707 -1.7767,7.92797 -0.26307,1.22091 -0.78363,3.55174 -1.15678,5.1796 -0.37315,1.62788 -1.06127,4.67223 -1.52918,6.7652 -0.4679,2.09299 -1.077,4.75679 -1.35354,5.91956 -0.27655,1.16277 -0.80082,3.49359 -1.16505,5.1796 -0.36425,1.68602 -0.84622,3.87414 -1.07106,4.86248 -0.22484,0.98836 -0.53997,2.4154 -0.70027,3.1712 -0.36006,1.69776 -1.68007,7.54964 -2.21747,9.83068 -0.21916,0.93021 -0.56193,2.45238 -0.76171,3.3826 -0.19977,0.93021 -0.53113,2.40481 -0.73633,3.27689 -0.20521,0.87208 -0.53882,2.34668 -0.74139,3.27689 -0.20256,0.93022 -0.5855,2.64266 -0.85096,3.80543 -0.26545,1.16277 -0.5458,2.42331 -0.62299,2.80121 l -0.14034,0.68709 H 31.61688 26.0503 Z m 30.52843,-46.7182 c 2.1e-4,-0.0807 1.03083,-4.62932 1.68943,-7.45625 0.33862,-1.45346 0.81755,-3.59401 1.06427,-4.75678 0.24674,-1.16277 0.50179,-2.25683 0.56678,-2.43125 0.065,-0.17442 0.14907,-0.50739 0.18685,-0.73994 0.0378,-0.23255 0.3978,-1.84986 0.80007,-3.59401 0.40224,-1.74416 1.02544,-4.45552 1.38489,-6.02526 0.35942,-1.56974 0.95736,-4.16218 1.32873,-5.76099 l 0.6752,-2.90692 h 5.54106 5.54105 l -0.31591,1.32133 c -0.17374,0.72672 -0.6892,2.93862 -1.14547,4.91533 -0.45627,1.97671 -0.87484,3.78428 -0.93018,4.01685 -0.0554,0.23255 -0.29761,1.32661 -0.53834,2.43124 -0.24075,1.10463 -0.77578,3.42941 -1.18896,5.16619 -0.41318,1.73677 -0.9767,4.2103 -1.25225,5.49672 -0.27555,1.28643 -0.69287,3.14761 -0.92737,4.13596 -0.23449,0.98836 -0.55961,2.41539 -0.7225,3.17119 -0.56038,2.60008 -0.78477,3.26729 -0.98987,2.94323 -0.10464,-0.16531 -0.19183,-0.20544 -0.19376,-0.0892 -0.002,0.13521 -1.9085,0.21141 -5.28868,0.21141 -2.90685,0 -5.28512,-0.022 -5.28504,-0.0489 z"
       id="path876-8"
       sodipodi:nodetypes="ssscssscscsssssccccsssssssssssssssscccscssssssscccsscsssssscscc" />
  </g>
</svg>
